#N canvas 905 198 903 719 10;
#X obj 64 92 r latitude;
#X obj 80 117 r longitude;
#X obj 171 117 r destinationLatitude;
#X obj 180 144 r destinationLongitude;
#X obj 64 161 haversine;
#X floatatom 53 201 12 0 0 0 - - -, f 12;
#X text 149 201 distance from current position to destination in metres
;
#X obj 636 413 r accelX;
#X obj 829 406 r accelY;
#X obj 454 395 r accelZ;
#X obj 671 532 osc~;
#X floatatom 666 496 5 0 0 0 - - -, f 5;
#X obj 667 686 dac~;
#X obj 619 582 *~;
#X floatatom 802 463 5 0 0 0 - - -, f 5;
#X obj 525 518 osc~;
#X floatatom 516 474 5 0 0 0 - - -, f 5;
#X obj 483 444 * 100;
#X obj 677 458 * 100;
#X obj 549 352 s onOff;
#X obj 689 582 *~;
#X obj 565 321 tgl 15 0 empty empty empty 17 7 0 10 -262144 -1 -1 0
1;
#X obj 735 384 r onOff;
#X obj 243 408 osc~;
#X obj 241 627 dac~;
#X obj 193 523 *~;
#X obj 252 451 *~ 1;
#X obj 252 473 +~ 0.5;
#X obj 99 459 osc~ 440;
#X obj 95 295 * 10;
#X connect 0 0 4 0;
#X connect 1 0 4 1;
#X connect 2 0 4 2;
#X connect 3 0 4 3;
#X connect 4 0 5 0;
#X connect 5 0 29 0;
#X connect 7 0 18 0;
#X connect 8 0 14 0;
#X connect 9 0 17 0;
#X connect 10 0 20 0;
#X connect 11 0 10 0;
#X connect 13 0 12 0;
#X connect 13 0 12 1;
#X connect 14 0 20 1;
#X connect 14 0 13 1;
#X connect 15 0 13 0;
#X connect 16 0 15 0;
#X connect 17 0 16 0;
#X connect 18 0 11 0;
#X connect 20 0 12 0;
#X connect 20 0 12 1;
#X connect 21 0 19 0;
#X connect 22 0 14 0;
#X connect 23 0 26 0;
#X connect 25 0 24 0;
#X connect 25 0 24 1;
#X connect 26 0 27 0;
#X connect 27 0 25 1;
#X connect 28 0 25 0;
#X connect 29 0 23 0;
